<?xml version="1.0" encoding="utf-8"?>
<!-- Generator: Adobe Illustrator 23.1.0, SVG Export Plug-In . SVG Version: 6.00 Build 0)  -->
<svg version="1.1" id="Ebene_1" xmlns="http://www.w3.org/2000/svg" xmlns:xlink="http://www.w3.org/1999/xlink" x="0px" y="0px"
	 viewBox="0 0 813 312" style="enable-background:new 0 0 813 312;" xml:space="preserve">
<style type="text/css">
	.st0{fill:#595959;}
	.st1{fill:#0DC6FF;}
</style>
<g>
	<path class="st0" d="M47.62,288.48v0.82c0,3.01-0.18,8.21-0.32,9.67c-0.37,3.56-2.33,5.66-5.98,6.39c-3.1,0.64-6.3,0.82-14.55,0.82
		c-10.45,0-13.69-0.41-16.24-2.14c-2.69-1.78-3.19-4.01-3.19-14c0-14.23,1.32-15.19,21.03-15.19c11.31,0,15.51,0.73,17.52,3.15
		c1.28,1.51,1.64,3.38,1.69,7.85h-9.26c-0.05-1.78-0.14-2.14-0.73-2.56c-0.91-0.64-3.06-0.82-9.99-0.82
		c-10.95,0-10.99,0.05-10.99,7.94c0,5.15,0.27,6.71,1.28,7.53c0.77,0.64,1.6,0.78,4.2,0.87l5.43,0.09c10.81,0,11.09-0.09,11.09-3.47
		v-0.87H26.41v-6.07H47.62z"/>
	<path class="st0" d="M84.97,275.3v7.16H60.43v4.43h23.31v6.71H60.43v4.84h24.73v7.3H51.3V275.3H84.97z"/>
	<path class="st0" d="M88.07,275.3h21.85c7.21,0.05,7.21,0.05,8.58,0.14c4.97,0.37,6.61,2.28,6.61,7.8c0,4.33-1.05,6.11-4.11,6.98
		c4.01,0.68,5.25,2.46,5.25,7.34c0,4.33-1.14,6.57-3.83,7.48c-1.73,0.59-2.23,0.64-12.45,0.68h-21.9V275.3z M109.92,287.3
		c3.28,0,4.61-0.09,5.2-0.37c0.68-0.27,1-1.05,1-2.14c0-1.28-0.41-1.96-1.37-2.19c-0.5-0.09-0.64-0.09-4.83-0.14H96.87v4.84H109.92z
		 M109.96,298.43c5.52-0.05,5.52-0.05,6.2-0.37c0.78-0.32,1.1-1,1.1-2.28c0-1.41-0.41-2.05-1.46-2.28
		c-0.46-0.09-0.46-0.09-5.84-0.14H96.87v5.06H109.96z"/>
	<path class="st0" d="M160.04,300.57h-20.12l-2.6,5.15h-10.58l16.1-30.43h14.42l15.92,30.43h-10.54L160.04,300.57z M147.5,264.12
		v6.57h-8.8v-6.57H147.5z M150.92,282.37h-1.83l-5.88,11.54h13.59L150.92,282.37z M161.18,264.12v6.57h-8.8v-6.57H161.18z"/>
	<path class="st0" d="M182.98,275.3v14c0.09,4.79,0.09,4.84,0.32,6.07c0.5,2.42,2.28,2.92,10.17,2.92c6.39,0,8.3-0.27,9.31-1.37
		c0.73-0.77,0.96-1.6,1.09-4.47c0.05-1.05,0.09-2.51,0.09-3.15v-14h9.26v14c-0.14,6.89-0.18,7.39-0.46,9.53
		c-0.5,3.47-2.83,5.88-6.3,6.61c-2.74,0.55-5.79,0.73-12.86,0.73c-11.63,0-15.28-0.64-17.56-3.06c-1.51-1.55-2.01-3.42-2.23-7.89
		c-0.05-1-0.05-1-0.09-5.93v-14H182.98z"/>
	<path class="st0" d="M217.37,275.3h21.94c7.75,0,8.8,0.05,11.4,0.59c3.01,0.59,5.02,2.33,5.93,5.16c0.68,2.14,0.87,4.06,0.87,9.03
		c0,7.94-0.68,11.04-2.92,13.09c-2.33,2.1-5.02,2.55-15.28,2.55h-21.94V275.3z M239.4,297.97c8.39,0,8.99-0.46,8.99-7.34
		c0-3.74-0.32-5.43-1.23-6.43c-0.96-1.1-2.19-1.28-7.85-1.28h-12.82v15.05H239.4z"/>
	<path class="st0" d="M294.82,275.3v7.16h-24.54v4.43h23.31v6.71h-23.31v4.84H295v7.3h-33.85V275.3H294.82z"/>
	<path class="st0" d="M297.91,275.3h21.94c7.76,0,8.8,0.05,11.41,0.59c3.01,0.59,5.02,2.33,5.93,5.16c0.68,2.14,0.87,4.06,0.87,9.03
		c0,7.94-0.68,11.04-2.92,13.09c-2.33,2.1-5.02,2.55-15.28,2.55h-21.94V275.3z M319.94,297.97c8.39,0,8.99-0.46,8.99-7.34
		c0-3.74-0.32-5.43-1.23-6.43c-0.96-1.1-2.19-1.28-7.85-1.28h-12.82v15.05H319.94z"/>
	<path class="st0" d="M351.41,275.3v30.43h-9.72V275.3H351.41z"/>
	<path class="st0" d="M389.36,275.3v7.16h-24.54v4.43h23.31v6.71h-23.31v4.84h24.73v7.3H355.7V275.3H389.36z"/>
	<path class="st0" d="M408.7,275.3l15.92,22.67h0.96l-0.23-22.67h9.44v30.43h-16.1l-16.01-22.72h-1l0.23,22.72h-9.44V275.3H408.7z"
		/>
	<path class="st0" d="M446.91,295.65c0,1.83,0.18,2.42,0.91,2.87c0.87,0.55,1.87,0.64,8.39,0.64c9.94,0,9.94,0,9.94-2.69
		c0-1.82-0.68-2.28-3.65-2.33l-7.3-0.27l-4.93-0.23l-2.46-0.09c-7.53-0.23-9.63-2.14-9.63-8.85c0-5.79,1.64-8.39,5.84-9.31
		c1.78-0.37,5.98-0.55,13.28-0.55c8.85,0,12.04,0.41,14.19,1.87c1.83,1.23,2.56,3.15,2.56,6.75c0,0.18,0,0.82-0.05,1.41h-8.94
		c-0.09-1.69-0.23-2.1-0.91-2.51c-0.77-0.46-1.92-0.55-8.48-0.55c-7.85,0-8.48,0.18-8.48,2.42c0,1.14,0.41,1.73,1.37,1.96
		c0.82,0.23,3.33,0.37,9.76,0.55c10.04,0.32,12,0.55,13.96,1.78c2.1,1.37,2.87,3.42,2.87,7.66c0,5.29-1.28,7.89-4.43,9.08
		c-1.83,0.68-5.66,0.91-14.73,0.91c-9.44,0-13.14-0.41-15.28-1.78c-2.1-1.32-2.78-3.1-2.78-7.3v-1.46H446.91z"/>
	<path class="st0" d="M513.42,275.3v7.76h-13.55v22.67h-9.72v-22.67H476.6v-7.76H513.42z"/>
	<path class="st0" d="M525.27,275.3v22.67h21.62v7.76h-31.34V275.3H525.27z"/>
	<path class="st0" d="M582.7,275.3v7.16h-24.54v4.43h23.31v6.71h-23.31v4.84h24.73v7.3h-33.85V275.3H582.7z"/>
	<path class="st0" d="M595.51,275.3v30.43h-9.72V275.3H595.51z"/>
	<path class="st0" d="M607.68,295.65c0,1.83,0.18,2.42,0.91,2.87c0.87,0.55,1.87,0.64,8.39,0.64c9.94,0,9.94,0,9.94-2.69
		c0-1.82-0.68-2.28-3.65-2.33l-7.3-0.27l-4.93-0.23l-2.46-0.09c-7.53-0.23-9.63-2.14-9.63-8.85c0-5.79,1.64-8.39,5.84-9.31
		c1.78-0.37,5.98-0.55,13.28-0.55c8.85,0,12.04,0.41,14.19,1.87c1.83,1.23,2.56,3.15,2.56,6.75c0,0.18,0,0.82-0.05,1.41h-8.94
		c-0.09-1.69-0.23-2.1-0.91-2.51c-0.77-0.46-1.92-0.55-8.48-0.55c-7.85,0-8.48,0.18-8.48,2.42c0,1.14,0.41,1.73,1.37,1.96
		c0.82,0.23,3.33,0.37,9.76,0.55c10.04,0.32,12,0.55,13.96,1.78c2.1,1.37,2.87,3.42,2.87,7.66c0,5.29-1.28,7.89-4.43,9.08
		c-1.83,0.68-5.66,0.91-14.73,0.91c-9.44,0-13.14-0.41-15.28-1.78c-2.1-1.32-2.78-3.1-2.78-7.3v-1.46H607.68z"/>
	<path class="st0" d="M674.19,275.3v7.76h-13.55v22.67h-9.72v-22.67h-13.55v-7.76H674.19z"/>
	<path class="st0" d="M685.4,275.3v14c0.09,4.79,0.09,4.84,0.32,6.07c0.5,2.42,2.28,2.92,10.17,2.92c6.39,0,8.3-0.27,9.31-1.37
		c0.73-0.77,0.96-1.6,1.09-4.47c0.05-1.05,0.09-2.51,0.09-3.15v-14h9.26v14c-0.14,6.89-0.18,7.39-0.46,9.53
		c-0.5,3.47-2.83,5.88-6.3,6.61c-2.74,0.55-5.79,0.73-12.86,0.73c-11.63,0-15.28-0.64-17.56-3.06c-1.51-1.55-2.01-3.42-2.23-7.89
		c-0.05-1-0.05-1-0.09-5.93v-14H685.4z"/>
	<path class="st0" d="M736.03,275.3l15.92,22.67h0.96l-0.23-22.67h9.44v30.43h-16.1l-16.01-22.72h-1l0.23,22.72h-9.44V275.3H736.03z
		"/>
	<path class="st0" d="M806,288.48v0.82c0,3.01-0.18,8.21-0.32,9.67c-0.37,3.56-2.33,5.66-5.98,6.39c-3.1,0.64-6.3,0.82-14.55,0.82
		c-10.45,0-13.69-0.41-16.24-2.14c-2.69-1.78-3.19-4.01-3.19-14c0-14.23,1.32-15.19,21.03-15.19c11.31,0,15.51,0.73,17.52,3.15
		c1.28,1.51,1.64,3.38,1.69,7.85h-9.26c-0.05-1.78-0.14-2.14-0.73-2.56c-0.91-0.64-3.06-0.82-9.99-0.82
		c-10.95,0-10.99,0.05-10.99,7.94c0,5.15,0.27,6.71,1.28,7.53c0.77,0.64,1.6,0.78,4.2,0.87l5.43,0.09c10.81,0,11.09-0.09,11.09-3.47
		v-0.87h-12.18v-6.07H806z"/>
</g>
<path class="st1" d="M115.67,240.78H50.23l-8.46,16.77H7.34l52.39-98.98h46.89l51.79,98.98h-34.28L115.67,240.78z M85.99,181.57
	h-5.94l-19.14,37.55h44.22L85.99,181.57z"/>
<path class="st1" d="M162.85,158.57h72.87c34.13,0,34.13,0,40.51,3.86c7.57,4.6,9.79,11.13,9.79,28.34
	c0,14.69-1.48,20.33-6.83,24.34c-2.82,2.23-5.64,3.26-11.58,4.15c15.29,1.78,17.96,6.23,17.36,29.09v9.2h-29.68v-5.19
	c0-11.13-0.59-14.69-2.97-17.21c-2.08-2.38-4.3-2.67-16.77-2.67h-42.59v25.08h-30.13V158.57z M235.42,207.69
	c15.14-0.3,15.14-0.3,17.21-1.78c2.37-1.48,3.26-4.45,3.26-10.69c0-6.68-1.19-9.5-4.3-10.83c-2.08-0.89-2.52-0.89-16.18-1.04h-42.44
	v24.34H235.42z"/>
<path class="st1" d="M405.93,158.57v23.3h-79.84v14.39h75.83v21.82h-75.83v15.73h80.44v23.74H296.41v-98.98H405.93z"/>
<path class="st1" d="M468.84,158.57l51.79,73.76h3.12l-0.74-73.76h30.72v98.98h-52.39l-52.09-73.9h-3.26l0.74,73.9h-30.72v-98.98
	H468.84z"/>
<path class="st1" d="M680.31,158.57v25.23h-44.08v73.76h-31.61V183.8h-44.08v-25.23H680.31z"/>
<path class="st1" d="M803.47,158.57v22.71l-72.42,52.53l74.65-1.04v24.78H683.27V234.4l71.53-52.09l-69.9,1.04v-24.78H803.47z"/>
<rect x="523.02" y="122.12" class="st1" width="30.71" height="63.61"/>
<rect x="468.87" y="-16.08" transform="matrix(0.5957 -0.8032 0.8032 0.5957 130.6548 422.368)" class="st1" width="32" height="194.96"/>
<rect x="334.67" y="-16.75" transform="matrix(-0.5343 -0.8453 0.8453 -0.5343 478.2079 405.0096)" class="st1" width="32" height="175.04"/>
<g>
	<path class="st1" d="M408.78,112.76H393c-0.69,0-1.24-0.56-1.24-1.24V95.74c0-0.69,0.56-1.24,1.24-1.24h15.78
		c0.69,0,1.24,0.56,1.24,1.24v15.78C410.03,112.2,409.47,112.76,408.78,112.76z"/>
	<path class="st1" d="M434.12,112.76h-15.78c-0.69,0-1.24-0.56-1.24-1.24V95.74c0-0.69,0.56-1.24,1.24-1.24h15.78
		c0.69,0,1.24,0.56,1.24,1.24v15.78C435.36,112.2,434.81,112.76,434.12,112.76z"/>
	<path class="st1" d="M408.78,136.37H393c-0.69,0-1.24-0.56-1.24-1.24v-15.78c0-0.69,0.56-1.24,1.24-1.24h15.78
		c0.69,0,1.24,0.56,1.24,1.24v15.78C410.03,135.81,409.47,136.37,408.78,136.37z"/>
	<path class="st1" d="M434.12,136.37h-15.78c-0.69,0-1.24-0.56-1.24-1.24v-15.78c0-0.69,0.56-1.24,1.24-1.24h15.78
		c0.69,0,1.24,0.56,1.24,1.24v15.78C435.36,135.81,434.81,136.37,434.12,136.37z"/>
</g>
<rect x="300.49" y="10.49" class="st1" width="35.13" height="80.28"/>
</svg>
